<svg width="142" height="24" viewBox="0 0 142 24" fill="none" xmlns="http://www.w3.org/2000/svg">
<path fill-rule="evenodd" clip-rule="evenodd" d="M0.630859 11.9063V22.5623C0.630858 22.8698 0.752724 23.1647 0.969761 23.3825C1.1868 23.6002 1.48131 23.7231 1.78877 23.7242H12.4488C12.611 23.725 12.7697 23.6775 12.9048 23.5877C13.0399 23.4979 13.1451 23.3698 13.207 23.2199C13.269 23.07 13.2848 22.905 13.2525 22.7461C13.2202 22.5871 13.1412 22.4414 13.0257 22.3275L2.02752 11.3253C1.91267 11.2115 1.76672 11.1342 1.60804 11.1032C1.44936 11.0721 1.28504 11.0886 1.13574 11.1507C0.986452 11.2128 0.85886 11.3177 0.769022 11.4521C0.679184 11.5866 0.631114 11.7446 0.630859 11.9063ZM18.3975 1.64819C18.5592 1.64954 18.7169 1.69843 18.8509 1.78878C18.985 1.87913 19.0895 2.00693 19.1515 2.15627C19.2134 2.3056 19.23 2.46986 19.1993 2.62858C19.1685 2.7873 19.0917 2.93346 18.9784 3.04883L14.9397 7.07965C14.8114 7.20554 14.71 7.35614 14.6416 7.52233C14.5732 7.68853 14.5393 7.86687 14.5418 8.04657V13.5855C14.5415 13.7472 14.4934 13.9052 14.4036 14.0396C14.3138 14.174 14.1862 14.2789 14.0369 14.341C13.8876 14.4031 13.7233 14.4197 13.5646 14.3886C13.4059 14.3575 13.2599 14.2802 13.1451 14.1664L2.02752 3.04883C1.91258 2.93443 1.83416 2.7885 1.80219 2.62951C1.77021 2.47052 1.78611 2.30562 1.84788 2.15568C1.90965 2.00573 2.01451 1.87747 2.14919 1.78714C2.28387 1.6968 2.44232 1.64845 2.60449 1.64819H18.3975ZM15.6997 23.7242H21.5609C21.8683 23.7231 22.1628 23.6002 22.3799 23.3825C22.5969 23.1647 22.7188 22.8698 22.7188 22.5623V9.58648C22.7185 9.42478 22.6705 9.26678 22.5806 9.13234C22.4908 8.9979 22.3632 8.89304 22.2139 8.83094C22.0646 8.76884 21.9003 8.75228 21.7416 8.78335C21.5829 8.81441 21.437 8.89171 21.3221 9.00553L14.9556 15.3721C14.8278 15.4975 14.7267 15.6474 14.6583 15.8129C14.59 15.9784 14.5557 16.156 14.5577 16.335V22.5702C14.5597 22.8736 14.6803 23.1641 14.8937 23.3798C15.1071 23.5954 15.3964 23.719 15.6997 23.7242Z" fill="#F7F7FA"/>
<path fill-rule="evenodd" clip-rule="evenodd" d="M141.992 18.9094C141.603 19.2218 141.153 19.4495 140.671 19.5779C140.134 19.7278 139.58 19.8028 139.023 19.8007C137.575 19.8007 136.453 19.4028 135.661 18.6627C134.869 17.9226 134.467 16.8005 134.467 15.3481V8.98155H132.08V8.39265L136.954 3.50632H137.575V6.52247H141.108V8.99349H137.575V15.2765C137.537 15.8081 137.705 16.3339 138.044 16.7448C138.222 16.9219 138.435 17.059 138.67 17.1469C138.904 17.2347 139.155 17.2713 139.405 17.2541C140.028 17.2761 140.639 17.0836 141.136 16.7089L142 18.9094H141.992ZM113.82 17.5445C114.542 17.5585 115.255 17.3756 115.881 17.0153C116.473 16.6746 116.924 16.1344 117.154 15.4913V13.9634H113.971C112.191 13.9634 111.301 14.5483 111.301 15.7182C111.294 15.9787 111.352 16.2369 111.468 16.47C111.585 16.7031 111.757 16.904 111.969 17.0551C112.518 17.4149 113.169 17.588 113.824 17.5485L113.82 17.5445ZM114.237 6.27179C116.182 6.27179 117.67 6.73734 118.702 7.66845C119.734 8.59956 120.247 10.0055 120.242 11.8863V19.6256H117.325V18.034C116.928 18.6261 116.365 19.0872 115.706 19.359C114.901 19.6826 114.038 19.8384 113.171 19.8166C112.28 19.8355 111.395 19.6618 110.577 19.3073C109.882 19.0105 109.285 18.522 108.858 17.8987C108.452 17.296 108.241 16.5836 108.253 15.8574C108.234 15.3116 108.344 14.7691 108.573 14.2735C108.803 13.7779 109.146 13.3432 109.574 13.0044C110.457 12.2882 111.846 11.9301 113.74 11.9301H117.15V11.7311C117.175 11.3374 117.114 10.943 116.971 10.5754C116.828 10.2077 116.607 9.87565 116.322 9.60229C115.773 9.10888 114.95 8.86218 113.863 8.86218C113.12 8.86244 112.382 8.97926 111.675 9.20836C111.013 9.41108 110.396 9.73788 109.856 10.1713L108.663 7.92312C109.413 7.36651 110.26 6.95491 111.162 6.70949C112.167 6.433 113.207 6.29905 114.249 6.31158L114.237 6.27179ZM90.0565 19.8007C88.9959 19.8007 87.94 19.6588 86.917 19.3789C86.0464 19.1677 85.2186 18.8083 84.4699 18.3165L85.6636 15.9688C86.3248 16.3926 87.0466 16.7133 87.8043 16.9198C88.6032 17.1539 89.431 17.2744 90.2634 17.278C92.1203 17.278 93.0488 16.7912 93.0488 15.8176C93.0553 15.6016 92.9895 15.3896 92.862 15.2152C92.7344 15.0408 92.5523 14.9139 92.3445 14.8547C91.6086 14.6074 90.8503 14.4328 90.0804 14.3334C89.1822 14.2078 88.294 14.019 87.4223 13.7684C86.7419 13.5535 86.129 13.1654 85.6437 12.6423C85.1119 12.0214 84.8423 11.2181 84.8916 10.4021C84.8788 9.81037 85.0158 9.22501 85.2899 8.70045C85.564 8.1759 85.9663 7.72918 86.4594 7.40185C87.5046 6.65113 88.9185 6.27577 90.7011 6.27577C91.6155 6.2774 92.527 6.38016 93.4188 6.58216C94.1991 6.74161 94.9496 7.02222 95.6431 7.41379L94.4494 9.76145C93.3029 9.0935 91.996 8.75094 90.6693 8.77066C89.9583 8.72627 89.2477 8.86318 88.6041 9.16857C88.3965 9.26187 88.2199 9.41258 88.0951 9.60293C87.9704 9.79328 87.9026 10.0153 87.8998 10.2429C87.8936 10.476 87.9638 10.7048 88.0995 10.8944C88.2353 11.084 88.4292 11.2241 88.6519 11.2934C89.4073 11.5704 90.1904 11.7652 90.9876 11.8743C91.8657 12.0046 92.7338 12.1948 93.586 12.4434C94.2511 12.6505 94.8515 13.0261 95.3288 13.5336C95.8471 14.1343 96.1086 14.9145 96.057 15.7062C96.0678 16.2958 95.9272 16.8784 95.6485 17.3981C95.3699 17.9179 94.9625 18.3574 94.4653 18.6746C93.4042 19.4147 91.9452 19.7861 90.0883 19.7888L90.0565 19.8007ZM78.6126 8.35285C79.5013 6.96813 81.0664 6.27577 83.308 6.27577V9.21632C83.0718 9.17115 82.8321 9.14718 82.5917 9.14469C82.075 9.11463 81.5576 9.1925 81.0725 9.37336C80.5875 9.55422 80.1455 9.8341 79.7745 10.1952C79.0981 10.8955 78.7599 11.9049 78.7599 13.2233V19.6256H75.6761V6.423H78.6206V8.35285H78.6126ZM66.5918 8.75076C65.6753 8.72554 64.7815 9.03857 64.081 9.63014C63.3897 10.2272 62.9445 11.0594 62.8316 11.9659H70.3242C70.2222 11.0674 69.7896 10.2391 69.1106 9.64208C68.4125 9.03963 67.5135 8.7215 66.5918 8.75076ZM73.2647 13.1039C73.2647 13.3188 73.2647 13.6212 73.217 14.0191H62.8714C63.0243 14.9468 63.5359 15.7772 64.2959 16.3309C65.1276 16.9202 66.1302 17.2194 67.1489 17.1825C67.8123 17.2037 68.473 17.0874 69.0893 16.8408C69.7056 16.5943 70.2643 16.2229 70.7301 15.75L72.3893 17.652C71.7827 18.3617 71.0086 18.9087 70.1372 19.2436C69.0243 19.6525 67.841 19.8345 66.6567 19.7792C65.4725 19.7238 64.3113 19.4322 63.2414 18.9213C62.174 18.3795 61.2846 17.5425 60.6789 16.51C60.0699 15.4462 59.7592 14.2379 59.7796 13.0124C59.761 11.7976 60.063 10.5995 60.655 9.53863C61.2251 8.52278 62.0688 7.68733 63.0902 7.1273C64.1673 6.54117 65.3777 6.24371 66.6038 6.26383C67.807 6.24249 68.9949 6.53603 70.0496 7.11536C71.0561 7.66823 71.8842 8.49636 72.4371 9.50281C73.0236 10.6037 73.3169 11.837 73.2886 13.084L73.2647 13.1039ZM59.2981 6.42697L54.0855 19.6296H50.9023L45.6897 6.42697H48.9048L52.5576 16.2195L56.3337 6.42697H59.2981ZM42.4745 4.25041C41.9538 4.26521 41.4481 4.0752 41.066 3.72119C40.8862 3.5509 40.743 3.34575 40.6451 3.11828C40.5473 2.8908 40.4968 2.64577 40.4968 2.39815C40.4968 2.15052 40.5473 1.90549 40.6451 1.67802C40.743 1.45054 40.8862 1.2454 41.066 1.0751C41.4475 0.719645 41.9533 0.528176 42.4745 0.541902C42.9917 0.526651 43.4953 0.708747 43.8831 1.05123C44.066 1.2084 44.2118 1.40405 44.3102 1.62418C44.4086 1.84431 44.457 2.08347 44.4522 2.32453C44.4572 2.57917 44.4105 2.83218 44.3147 3.06818C44.2189 3.30418 44.0762 3.51823 43.8951 3.69732C43.7085 3.88152 43.4863 4.02561 43.242 4.12073C42.9977 4.21585 42.7365 4.25998 42.4745 4.25041ZM40.9187 6.42697H44.0065V19.6296H40.9187V6.423V6.42697ZM33.7126 8.35684C34.6013 6.97211 36.1664 6.27975 38.4079 6.27975V9.2203C38.1718 9.17513 37.9321 9.15116 37.6917 9.14867C37.1749 9.11861 36.6575 9.19649 36.1725 9.37735C35.6875 9.5582 35.2454 9.83808 34.8745 10.1992C34.198 10.8995 33.8598 11.9088 33.8598 13.2272V19.6296H30.7681V6.423H33.7126V8.35285V8.35684ZM106.649 18.9134C106.259 19.2263 105.808 19.454 105.324 19.5818C104.79 19.7322 104.236 19.8072 103.681 19.8047C102.233 19.8047 101.11 19.4068 100.319 18.6667C99.5267 17.9265 99.1248 16.8044 99.1248 15.3521V8.98553H96.7374V8.39265L101.612 3.52224H102.229V6.53839H105.766V9.00941H102.229V15.2765C102.188 15.8089 102.355 16.3362 102.694 16.7487C102.871 16.9256 103.083 17.0625 103.317 17.1504C103.551 17.2382 103.802 17.275 104.051 17.2581C104.673 17.28 105.284 17.0876 105.782 16.7129L106.649 18.9134ZM126.016 8.35684C126.907 6.97211 128.473 6.27975 130.715 6.27975V9.2203C130.479 9.17532 130.239 9.15135 129.999 9.14867C129.481 9.11854 128.963 9.19636 128.478 9.37721C127.992 9.55806 127.549 9.83797 127.177 10.1992C126.504 10.8995 126.167 11.9088 126.167 13.2272V19.6296H123.075V6.423H126.016V8.35684Z" fill="#F7F7FA"/>
</svg>
