<svg width="100" height="17" viewBox="0 0 100 17" xmlns="http://www.w3.org/2000/svg">
    <path fill-rule="evenodd" clip-rule="evenodd"
          d="M0.503906 8.21945V15.7192C0.503905 15.9356 0.589675 16.1432 0.742427 16.2964C0.895179 16.4497 1.10246 16.5362 1.31885 16.5369H8.82139C8.93555 16.5375 9.0473 16.5041 9.14236 16.4409C9.23742 16.3777 9.31148 16.2875 9.35507 16.182C9.39866 16.0765 9.4098 15.9604 9.38707 15.8485C9.36434 15.7367 9.30877 15.6341 9.22746 15.554L1.48688 7.81057C1.40605 7.73047 1.30333 7.67606 1.19165 7.6542C1.07997 7.63234 0.964319 7.64399 0.859246 7.68769C0.754174 7.7314 0.664374 7.8052 0.601146 7.89982C0.537917 7.99444 0.504086 8.10565 0.503906 8.21945ZM13.0081 0.999756C13.1219 1.0007 13.2329 1.03511 13.3273 1.0987C13.4216 1.16229 13.4952 1.25224 13.5388 1.35734C13.5824 1.46244 13.5941 1.57805 13.5724 1.68976C13.5508 1.80146 13.4967 1.90433 13.417 1.98553L10.5745 4.82244C10.4842 4.91104 10.4129 5.01703 10.3647 5.134C10.3166 5.25097 10.2927 5.37649 10.2945 5.50296V9.40126C10.2943 9.51506 10.2604 9.62626 10.1972 9.72088C10.134 9.8155 10.0442 9.8893 9.93911 9.93301C9.83404 9.97671 9.71839 9.98837 9.60671 9.9665C9.49503 9.94464 9.39231 9.89023 9.31148 9.81013L1.48688 1.98553C1.40599 1.90501 1.3508 1.80231 1.32829 1.69041C1.30579 1.57852 1.31698 1.46246 1.36045 1.35692C1.40392 1.25139 1.47772 1.16112 1.57251 1.09755C1.6673 1.03397 1.77882 0.999937 1.89295 0.999756H13.0081ZM11.1094 16.5369H15.2345C15.4509 16.5362 15.6582 16.4497 15.811 16.2964C15.9637 16.1432 16.0495 15.9356 16.0495 15.7192V6.58675C16.0493 6.47295 16.0155 6.36175 15.9522 6.26713C15.889 6.17251 15.7992 6.09871 15.6941 6.055C15.5891 6.0113 15.4734 5.99964 15.3617 6.02151C15.2501 6.04337 15.1473 6.09778 15.0665 6.17788L10.5857 10.6587C10.4958 10.747 10.4246 10.8525 10.3765 10.969C10.3284 11.0854 10.3043 11.2104 10.3057 11.3364V15.7248C10.3071 15.9383 10.392 16.1428 10.5422 16.2945C10.6923 16.4463 10.8959 16.5333 11.1094 16.5369Z"/>
    <path fill-rule="evenodd" clip-rule="evenodd"
          d="M99.9949 13.1484C99.7212 13.3683 99.4045 13.5286 99.0651 13.6189C98.6878 13.7245 98.2976 13.7772 97.9057 13.7757C96.8864 13.7757 96.0966 13.4957 95.5393 12.9748C94.982 12.4539 94.6992 11.6642 94.6992 10.642V6.16119H93.0189V5.74671L96.4495 2.3077H96.8864V4.43048H99.3732V6.16959H96.8864V10.5916C96.8596 10.9657 96.9779 11.3358 97.2168 11.625C97.3416 11.7496 97.4916 11.8462 97.6568 11.908C97.8221 11.9698 97.9986 11.9955 98.1746 11.9834C98.6126 11.9989 99.0427 11.8634 99.3928 11.5998L100.001 13.1484H99.9949ZM80.1674 12.1879C80.6758 12.1977 81.1773 12.0689 81.618 11.8154C82.0346 11.5756 82.3522 11.1954 82.5142 10.7428V9.66741H80.2738C79.021 9.66741 78.3947 10.0791 78.3947 10.9024C78.39 11.0858 78.4305 11.2675 78.5126 11.4316C78.5946 11.5957 78.7157 11.7371 78.8651 11.8434C79.2514 12.0966 79.7091 12.2184 80.1702 12.1907L80.1674 12.1879ZM80.4614 4.25405C81.8299 4.25405 82.8773 4.5817 83.6036 5.23702C84.3298 5.89234 84.6911 6.88185 84.6874 8.20555V13.6525H82.6346V12.5323C82.3552 12.949 81.9586 13.2736 81.4948 13.4649C80.9283 13.6927 80.3213 13.8023 79.7109 13.787C79.0835 13.8002 78.4607 13.678 77.885 13.4285C77.3957 13.2196 76.9761 12.8758 76.6752 12.4371C76.3899 12.0129 76.2414 11.5116 76.2495 11.0005C76.2363 10.6163 76.3136 10.2345 76.4751 9.88569C76.6366 9.53691 76.8778 9.23095 77.1792 8.99249C77.8009 8.4884 78.7783 8.23636 80.1114 8.23636H82.5114V8.09633C82.529 7.81927 82.486 7.54169 82.3854 7.28293C82.2848 7.02418 82.129 6.79046 81.9289 6.59806C81.5424 6.2508 80.9627 6.07717 80.1982 6.07717C79.6752 6.07736 79.1554 6.15957 78.6579 6.32082C78.1922 6.4635 77.7578 6.69349 77.3781 6.99854L76.5379 5.41626C77.0659 5.02451 77.6623 4.73483 78.2966 4.5621C79.0044 4.3675 79.7359 4.27323 80.4698 4.28205L80.4614 4.25405ZM63.4428 13.7757C62.6963 13.7757 61.9532 13.6759 61.2332 13.4789C60.6205 13.3303 60.0379 13.0773 59.5109 12.7312L60.351 11.0789C60.8164 11.3771 61.3244 11.6028 61.8577 11.7482C62.4199 11.9129 63.0025 11.9977 63.5884 12.0002C64.8953 12.0002 65.5488 11.6576 65.5488 10.9724C65.5533 10.8204 65.5071 10.6712 65.4173 10.5485C65.3275 10.4257 65.1993 10.3364 65.0531 10.2947C64.5352 10.1207 64.0015 9.99778 63.4596 9.92786C62.8274 9.83946 62.2023 9.70657 61.5888 9.53019C61.11 9.37892 60.6786 9.10581 60.337 8.73765C59.9628 8.30063 59.773 7.73529 59.8077 7.16097C59.7987 6.74451 59.8951 6.33253 60.088 5.96335C60.2809 5.59416 60.5641 5.27976 60.9111 5.04939C61.6467 4.52103 62.6418 4.25685 63.8965 4.25685C64.54 4.25799 65.1815 4.33031 65.8092 4.47249C66.3584 4.58471 66.8866 4.7822 67.3747 5.05779L66.5345 6.71009C65.7276 6.23998 64.8078 5.99888 63.8741 6.01276C63.3737 5.98152 62.8736 6.07788 62.4206 6.29281C62.2745 6.35848 62.1502 6.46455 62.0624 6.59852C61.9745 6.73249 61.9269 6.88877 61.9249 7.04894C61.9206 7.21301 61.9699 7.37402 62.0654 7.50747C62.161 7.64092 62.2975 7.73952 62.4542 7.78828C62.9859 7.98322 63.537 8.1203 64.0981 8.19715C64.7161 8.28886 65.3271 8.42266 65.9268 8.59762C66.395 8.74343 66.8175 9.00776 67.1535 9.36496C67.5182 9.78769 67.7023 10.3369 67.6659 10.894C67.6736 11.309 67.5746 11.719 67.3785 12.0848C67.1824 12.4506 66.8956 12.7599 66.5457 12.9832C65.7989 13.5041 64.7721 13.7655 63.4652 13.7673L63.4428 13.7757ZM55.3885 5.71871C56.014 4.74413 57.1155 4.25685 58.6931 4.25685V6.32642C58.5269 6.29463 58.3582 6.27776 58.189 6.27601C57.8253 6.25485 57.4612 6.30966 57.1198 6.43695C56.7785 6.56424 56.4674 6.76121 56.2063 7.01534C55.7302 7.50823 55.4922 8.21862 55.4922 9.14652V13.6525H53.3218V4.36047H55.3941V5.71871H55.3885ZM46.9282 5.99876C46.2832 5.98101 45.6541 6.20132 45.1611 6.61767C44.6746 7.03785 44.3612 7.62362 44.2818 8.26156H49.5551C49.4833 7.62925 49.1789 7.04626 48.701 6.62607C48.2096 6.20206 47.5769 5.97816 46.9282 5.99876ZM51.6247 9.0625C51.6247 9.21373 51.6247 9.42657 51.5911 9.70662H44.3098C44.4174 10.3596 44.7775 10.944 45.3123 11.3337C45.8977 11.7485 46.6033 11.9591 47.3203 11.933C47.7872 11.948 48.2522 11.8661 48.686 11.6926C49.1198 11.5191 49.5129 11.2577 49.8408 10.9248L51.0086 12.2635C50.5816 12.7629 50.0368 13.148 49.4235 13.3837C48.6403 13.6714 47.8074 13.7996 46.9739 13.7606C46.1404 13.7217 45.3232 13.5164 44.5702 13.1568C43.8189 12.7755 43.193 12.1865 42.7667 11.4597C42.3381 10.7111 42.1194 9.86064 42.1338 8.99809C42.1207 8.14316 42.3332 7.2999 42.7499 6.55326C43.1511 5.8383 43.7449 5.25031 44.4638 4.85616C45.2218 4.44364 46.0737 4.23428 46.9366 4.24844C47.7835 4.23343 48.6195 4.44002 49.3619 4.84775C50.0702 5.23687 50.6531 5.81971 51.0422 6.52805C51.455 7.30283 51.6614 8.17084 51.6415 9.0485L51.6247 9.0625ZM41.7949 4.36327L38.1263 13.6553H35.8859L32.2172 4.36327H34.48L37.0509 11.2553L39.7085 4.36327H41.7949ZM29.9544 2.83139C29.5879 2.84181 29.232 2.70808 28.963 2.45893C28.8365 2.33907 28.7357 2.19469 28.6669 2.03459C28.598 1.87449 28.5625 1.70204 28.5625 1.52776C28.5625 1.35348 28.598 1.18103 28.6669 1.02093C28.7357 0.860833 28.8365 0.71645 28.963 0.596595C29.2315 0.346423 29.5875 0.211666 29.9544 0.221327C30.3184 0.210593 30.6728 0.338753 30.9458 0.579793C31.0745 0.69041 31.1771 0.828113 31.2463 0.983042C31.3156 1.13797 31.3497 1.30629 31.3463 1.47595C31.3498 1.65517 31.3169 1.83324 31.2495 1.99933C31.1821 2.16543 31.0816 2.31608 30.9542 2.44212C30.8229 2.57177 30.6665 2.67318 30.4945 2.74012C30.3226 2.80706 30.1388 2.83813 29.9544 2.83139ZM28.8594 4.36327H31.0326V13.6553H28.8594V4.36047V4.36327ZM23.7877 5.72151C24.4131 4.74694 25.5147 4.25965 27.0923 4.25965V6.32922C26.9261 6.29743 26.7574 6.28056 26.5882 6.27881C26.2245 6.25765 25.8604 6.31246 25.519 6.43975C25.1776 6.56704 24.8665 6.76401 24.6055 7.01814C24.1294 7.51103 23.8913 8.22142 23.8913 9.14932V13.6553H21.7153V4.36047H23.7877V5.71871V5.72151ZM75.1209 13.1512C74.8463 13.3715 74.5286 13.5317 74.1883 13.6217C73.8119 13.7276 73.4227 13.7803 73.0317 13.7785C72.0123 13.7785 71.2226 13.4985 70.6653 12.9776C70.108 12.4567 69.8251 11.667 69.8251 10.6448V6.16399H68.1448V5.74671L71.5754 2.3189H72.0095V4.44168H74.4992V6.18079H72.0095V10.5916C71.9812 10.9663 72.0986 11.3374 72.3372 11.6278C72.4615 11.7522 72.6111 11.8486 72.7758 11.9104C72.9405 11.9723 73.1166 11.9981 73.2921 11.9862C73.7302 12.0017 74.1602 11.8663 74.5104 11.6026L75.1209 13.1512ZM88.7509 5.72151C89.3782 4.74694 90.4807 4.25965 92.0583 4.25965V6.32922C91.8921 6.29756 91.7234 6.28069 91.5542 6.27881C91.1901 6.2576 90.8255 6.31237 90.4837 6.43966C90.1418 6.56694 89.8302 6.76394 89.5686 7.01814C89.0944 7.51103 88.8573 8.22142 88.8573 9.14932V13.6553H86.6813V4.36047H88.7509V5.72151Z"/>
</svg>
